<svg width="124" height="120" viewBox="0 0 124 120" fill="none" xmlns="http://www.w3.org/2000/svg">
<path d="M2 32.5912L32.4899 2H122V87.4088L91.5101 118H2V32.5912Z" stroke="#C53720" stroke-width="4"/>
<path d="M41 53V57C41 59.7614 43.2386 62 46 62H58" stroke="white" stroke-width="4"/>
<path fill-rule="evenodd" clip-rule="evenodd" d="M74.2123 67.6685L76.0658 65.5908L77.443 68.0106L81.7382 75.5575L78.2618 77.5361L75.3438 72.409L67.7191 80.9562L67.743 80.9812L67.6858 81.043L74.3228 88.6888L71.3022 91.311L64.952 83.9955L58.1342 91.3587L55.1991 88.6411L62.257 81.0186L53.9346 72.2723L50.7096 77.5847L47.2904 75.5089L51.8719 67.962L53.2285 65.7275L55.0304 67.6212L64.9525 78.0487L74.2123 67.6685Z" fill="white" fill-opacity="0.5"/>
<path d="M31.6565 85.7907C26.0137 91 23.4275 100.55 23 105H65L49.6107 77C45.8702 77.5426 37.2992 80.5814 31.6565 85.7907Z" stroke="white" stroke-width="4"/>
<path d="M80.3893 77C84.1298 77.5426 92.7008 80.5814 98.3435 85.7907C99.5275 86.8837 100.577 88.1678 101.5 89.5559L86.5 105H65L80.3893 77Z" stroke="white" stroke-width="4"/>
<path d="M47.8922 38.8906C47.4559 29.142 55.2417 21 65 21C74.7583 21 82.5441 29.142 82.1078 38.8906L81.3246 56.3897C80.9338 65.1217 73.7407 72 65 72C56.2593 72 49.0662 65.1217 48.6754 56.3897L47.8922 38.8906Z" stroke="white" stroke-width="4"/>
<path d="M47.5 38C47.5 38 51.7884 32.5199 56.8448 31.3243C64.4712 29.5209 64.181 35.6617 75.3448 39.3317C78.078 40.2302 82 40 82 40" stroke="white" stroke-opacity="0.5" stroke-width="4"/>
<path fill-rule="evenodd" clip-rule="evenodd" d="M92.9206 47.1516C93.0182 44.7329 92.2945 42.4714 90.9978 40.6363C90.8176 25.4893 79.3921 13 65 13C50.9108 13 39.6647 24.9691 39.0284 39.6835C37.2618 41.658 36.2315 44.2952 36.3468 47.1516L36.3684 47.688C36.6036 53.5167 41.5193 58.0512 47.3481 57.816L47.1868 53.8193C43.5654 53.9654 40.5113 51.1481 40.3652 47.5268L40.3435 46.9903C40.1974 43.369 43.0147 40.3148 46.6361 40.1687L46.4748 36.1719C45.3751 36.2163 44.3215 36.4273 43.3372 36.7796C45.1745 25.4349 54.2888 17 65 17C75.8103 17 84.9941 25.5918 86.7119 37.0954C85.5117 36.5534 84.1893 36.2283 82.7926 36.1719L82.6314 40.1687C86.2528 40.3148 89.07 43.369 88.9239 46.9903L88.9023 47.5268C88.7561 51.1481 85.702 53.9654 82.0806 53.8193L81.9194 57.816C87.7481 58.0512 92.6638 53.5167 92.899 47.688L92.9206 47.1516Z" fill="white"/>
<rect x="58.0026" y="58.8916" width="10.6774" height="6.24404" rx="3.12202" transform="rotate(0.400125 58.0026 58.8916)" stroke="white" stroke-width="4"/>
</svg>
